# xmcd
#
# Track frame offsets:
#	150
#	13543
#	27653
#	39352
#	50008
#	65248
#	78407
#	91303
#	104269
#	117137
#	131695
#	144661
#	157199
#	171114
#	183854
#	197789
#	212767
#	227033
#
# Disc length: 3367 seconds
#
# Revision: 0
# Processed by: cddbd v1.5.1PL0 Copyright (c) Steve Scherf et al.
# Submitted via: dBpowerAMP V4.0
#
DISCID=000d2512
DTITLE=Various Artist - Classic Blues Vol 1
DYEAR=2000
DGENRE=Blues
TTITLE0=Nobody Knows When You'r Down and Out - Besie Smith
TTITLE1=Ain't Nobody's Busines If IDo PT2 - Jimmy Witherspoon
TTITLE2=It's Midnight (no place to go) - Little Willie Littlefield
TTITLE3=Trouble Blues - Charles Brown
TTITLE4=It Won't Be Long Now - Frank Stokes
TTITLE5=Don't Put Me Down - Jimmy Liggins
TTITLE6=Give Me A Break Blues - Ida Cox
TTITLE7=Kansas City Blues - Memphis Jug Band
TTITLE8=Ramblin On My Mind - Robert Johnson
TTITLE9=Rocks In My Bed - Joe Turner
TTITLE10=St. Louis Blues - Billie Holiday
TTITLE11=Gamblin' On My Mind - Champion Jack Dupree
TTITLE12=I Ain't Gonna Be Worried - Sleepy John Estes
TTITLE13=It's Your Time Now - Big Bill Broonzy
TTITLE14=Midnight Hour Blues - Leroy Carr
TTITLE15=Yours and Mine - Billie Holiday
TTITLE16=Nobody's Fault But Mine - Blind Willie Johnson
TTITLE17=Little Red Rooster - Big Mama Thornton
EXTD=
EXTT0=
EXTT1=
EXTT2=
EXTT3=
EXTT4=
EXTT5=
EXTT6=
EXTT7=
EXTT8=
EXTT9=
EXTT10=
EXTT11=
EXTT12=
EXTT13=
EXTT14=
EXTT15=
EXTT16=
EXTT17=
PLAYORDER=
